<svg width="248" height="129" viewBox="0 0 248 129" fill="none" xmlns="http://www.w3.org/2000/svg">
<path fill-rule="evenodd" clip-rule="evenodd" d="M68.3114 103.793H191.569C197.31 103.793 201.964 99.1461 201.964 93.4138C201.964 87.6815 197.31 83.0345 191.569 83.0345C191.569 83.0345 182.659 78.3875 182.659 72.6552C182.659 66.9228 188.527 62.2759 195.766 62.2759H210.874C216.615 62.2759 221.269 57.6289 221.269 51.8966C221.269 46.1642 216.615 41.5172 210.874 41.5172H178.204C183.945 41.5172 188.599 36.8703 188.599 31.1379C188.599 25.4056 183.945 20.7586 178.204 20.7586H237.605C243.346 20.7586 248 16.1116 248 10.3793C248 4.64698 243.346 0 237.605 0H92.0719C86.3307 0 81.6766 4.64698 81.6766 10.3793C81.6766 16.1116 86.3307 20.7586 92.0719 20.7586H32.6707C26.9295 20.7586 22.2754 25.4056 22.2754 31.1379C22.2754 36.8703 26.9295 41.5172 32.6707 41.5172H69.7964C75.5375 41.5172 80.1916 46.1642 80.1916 51.8966C80.1916 57.6289 75.5375 62.2759 69.7964 62.2759H10.3952C4.65409 62.2759 0 66.9228 0 72.6552C0 78.3875 4.65409 83.0345 10.3952 83.0345H68.3114C62.5703 83.0345 57.9162 87.6815 57.9162 93.4138C57.9162 99.1461 62.5703 103.793 68.3114 103.793ZM227.21 51.8966C227.21 57.6289 231.864 62.2759 237.605 62.2759C243.346 62.2759 248 57.6289 248 51.8966C248 46.1642 243.346 41.5172 237.605 41.5172C231.864 41.5172 227.21 46.1642 227.21 51.8966Z" fill="#F3F7FF"/>
<ellipse cx="109.15" cy="51.1553" rx="49.7485" ry="49.6724" fill="#F3F7FF" stroke="#376DC8" stroke-width="3"/>
<ellipse cx="109.15" cy="51.1554" rx="39.3533" ry="39.2931" fill="white" stroke="#376DC8" stroke-width="3" stroke-linecap="round"/>
<ellipse cx="89.6945" cy="84.7556" rx="5.34866" ry="3.09296" stroke="#376DC8" stroke-width="3" stroke-linecap="round"/>
<ellipse cx="95.7844" cy="37.8103" rx="14.1078" ry="14.0862" stroke="#376DC8" stroke-width="3" stroke-linecap="round"/>
<path d="M149.988 90.4482L158.898 99.3448" stroke="#376DC8" stroke-width="3"/>
<path d="M157.215 108.329C154.263 105.381 154.263 100.596 157.215 97.6484C160.161 94.7066 164.933 94.7066 167.88 97.6484L184.342 114.085C187.294 117.033 187.294 121.818 184.342 124.766C181.395 127.708 176.623 127.708 173.677 124.766L157.215 108.329Z" fill="#E8F0FE" stroke="#376DC8" stroke-width="3"/>
<path d="M164.838 100.828L181.174 117.138" stroke="white" stroke-width="2.5" stroke-linecap="round"/>
<path d="M172.745 37.2847C171.226 37.2847 169.995 38.5159 169.995 40.0347H172.995C172.995 40.1727 172.883 40.2847 172.745 40.2847V37.2847ZM198.251 37.2847H172.745V40.2847H198.251V37.2847ZM201.001 40.0347C201.001 38.5159 199.77 37.2847 198.251 37.2847V40.2847C198.113 40.2847 198.001 40.1727 198.001 40.0347H201.001ZM198.251 42.7847C199.77 42.7847 201.001 41.5535 201.001 40.0347H198.001C198.001 39.8966 198.113 39.7847 198.251 39.7847V42.7847ZM172.745 42.7847H198.251V39.7847H172.745V42.7847ZM169.995 40.0347C169.995 41.5535 171.226 42.7847 172.745 42.7847V39.7847C172.883 39.7847 172.995 39.8966 172.995 40.0347H169.995ZM205.348 37.2847C203.829 37.2847 202.598 38.5159 202.598 40.0347H205.598C205.598 40.1727 205.486 40.2847 205.348 40.2847V37.2847ZM208.647 37.2847H205.348V40.2847H208.647V37.2847ZM211.397 40.0347C211.397 38.5159 210.165 37.2847 208.647 37.2847V40.2847C208.509 40.2847 208.397 40.1727 208.397 40.0347H211.397ZM208.647 42.7847C210.165 42.7847 211.397 41.5535 211.397 40.0347H208.397C208.397 39.8966 208.509 39.7847 208.647 39.7847V42.7847ZM205.348 42.7847H208.647V39.7847H205.348V42.7847ZM202.598 40.0347C202.598 41.5535 203.829 42.7847 205.348 42.7847V39.7847C205.486 39.7847 205.598 39.8966 205.598 40.0347H202.598ZM176.969 51.5666C176.969 51.7047 176.857 51.8166 176.719 51.8166V48.8166C175.2 48.8166 173.969 50.0478 173.969 51.5666H176.969ZM176.719 51.3166C176.857 51.3166 176.969 51.4285 176.969 51.5666H173.969C173.969 53.0854 175.2 54.3166 176.719 54.3166V51.3166ZM188.86 51.3166H176.719V54.3166H188.86V51.3166ZM188.61 51.5666C188.61 51.4285 188.722 51.3166 188.86 51.3166V54.3166C190.379 54.3166 191.61 53.0854 191.61 51.5666H188.61ZM188.86 51.8166C188.722 51.8166 188.61 51.7047 188.61 51.5666H191.61C191.61 50.0478 190.379 48.8166 188.86 48.8166V51.8166ZM176.719 51.8166H188.86V48.8166H176.719V51.8166Z" fill="#376DC8"/>
<path d="M7.8392 68.4224C6.32042 68.4224 5.0892 69.6536 5.0892 71.1724H8.0892C8.0892 71.3104 7.97727 71.4224 7.8392 71.4224V68.4224ZM14.1078 68.4224H7.8392V71.4224H14.1078V68.4224ZM16.8578 71.1724C16.8578 69.6536 15.6266 68.4224 14.1078 68.4224V71.4224C13.9697 71.4224 13.8578 71.3104 13.8578 71.1724H16.8578ZM14.1078 73.9224C15.6266 73.9224 16.8578 72.6911 16.8578 71.1724H13.8578C13.8578 71.0343 13.9697 70.9224 14.1078 70.9224V73.9224ZM7.8392 73.9224H14.1078V70.9224H7.8392V73.9224ZM5.0892 71.1724C5.0892 72.6911 6.32042 73.9224 7.8392 73.9224V70.9224C7.97727 70.9224 8.0892 71.0343 8.0892 71.1724H5.0892ZM22.7569 68.4224C21.2382 68.4224 20.0069 69.6536 20.0069 71.1724H23.0069C23.0069 71.3104 22.895 71.4224 22.7569 71.4224V68.4224ZM48.2635 68.4224H22.7569V71.4224H48.2635V68.4224ZM51.0135 71.1724C51.0135 69.6536 49.7823 68.4224 48.2635 68.4224V71.4224C48.1254 71.4224 48.0135 71.3104 48.0135 71.1724H51.0135ZM48.2635 73.9224C49.7823 73.9224 51.0135 72.6911 51.0135 71.1724H48.0135C48.0135 71.0343 48.1254 70.9224 48.2635 70.9224V73.9224ZM22.7569 73.9224H48.2635V70.9224H22.7569V73.9224ZM20.0069 71.1724C20.0069 72.6911 21.2382 73.9224 22.7569 73.9224V70.9224C22.895 70.9224 23.0069 71.0343 23.0069 71.1724H20.0069ZM43.3159 84.187C43.3159 84.3251 43.204 84.437 43.0659 84.437V81.437C41.5471 81.437 40.3159 82.6683 40.3159 84.187H43.3159ZM43.0659 83.937C43.204 83.937 43.3159 84.049 43.3159 84.187H40.3159C40.3159 85.7058 41.5471 86.937 43.0659 86.937V83.937ZM55.2072 83.937H43.0659V86.937H55.2072V83.937ZM54.9572 84.187C54.9572 84.049 55.0691 83.937 55.2072 83.937V86.937C56.726 86.937 57.9572 85.7058 57.9572 84.187H54.9572ZM55.2072 84.437C55.0691 84.437 54.9572 84.3251 54.9572 84.187H57.9572C57.9572 82.6683 56.7259 81.437 55.2072 81.437V84.437ZM43.0659 84.437H55.2072V81.437H43.0659V84.437Z" fill="#376DC8"/>
</svg>
